# xmcd
#
# Track frame offsets: 
#        150
#        20600
#        40055
#        58177
#        81492
#        104870
#        128175
#        147525
#        166837
#        184124
#        204022
#        225184
#
# Disc length: 3293 seconds
#
# Revision: 2
# Processed by: cddbd v1.5.2PL0 Copyright (c) Steve Scherf et al.
# Submitted via: ExactAudioCopy v0.99pb4
#
DISCID=a30cdb0c
DTITLE=Daniel E Samuel - Inexplicável
DYEAR=1900
DGENRE=Gospel
TTITLE0=Não Temerei
TTITLE1=Sou Da Paz
TTITLE2=Vai Passar
TTITLE3=Inexplicável
TTITLE4=Simplesmente Barro
TTITLE5=Viúva  Sem Nada
TTITLE6=Todos Procuravam Ele
TTITLE7=Vai Sonhador
TTITLE8=Filho Do Dono
TTITLE9=Sorrisos Retornam
TTITLE10=Cortina De Aço
TTITLE11=Fonte De Amor
EXTD=
EXTT0=
EXTT1=
EXTT2=
EXTT3=
EXTT4=
EXTT5=
EXTT6=
EXTT7=
EXTT8=
EXTT9=
EXTT10=
EXTT11=
PLAYORDER=
